<svg width="512" height="512" viewBox="0 0 680 680" xmlns="http://www.w3.org/2000/svg">
  <rect width="680" height="680" rx="120" fill="#3D6B4F"/>
  <rect x="160" y="180" width="360" height="320" rx="24" fill="#EDE9DF"/>
  <rect x="160" y="180" width="360" height="90" rx="24" fill="#2A5038"/>
  <rect x="160" y="230" width="360" height="40" fill="#2A5038"/>
  <rect x="210" y="155" width="40" height="80" rx="12" fill="#1C1A17"/>
  <rect x="430" y="155" width="40" height="80" rx="12" fill="#1C1A17"/>
  <line x1="160" y1="320" x2="520" y2="320" stroke="#D6D0C4" stroke-width="2"/>
  <line x1="160" y1="380" x2="520" y2="380" stroke="#D6D0C4" stroke-width="2"/>
  <line x1="160" y1="440" x2="520" y2="440" stroke="#D6D0C4" stroke-width="2"/>
  <line x1="280" y1="270" x2="280" y2="500" stroke="#D6D0C4" stroke-width="2"/>
  <line x1="400" y1="270" x2="400" y2="500" stroke="#D6D0C4" stroke-width="2"/>
  <rect x="185" y="330" width="75" height="35" rx="6" fill="#C4832A" opacity="0.9"/>
  <rect x="305" y="390" width="75" height="35" rx="6" fill="#3D6B4F" opacity="0.9"/>
  <rect x="185" y="390" width="75" height="35" rx="6" fill="#5A8FA6" opacity="0.9"/>
  <g transform="translate(420, 420) rotate(-35)">
    <path d="M0,0 C20,-60 60,-80 40,-120 C60,-80 80,-40 20,20 Z" fill="#F0EDE6" stroke="#6B6560" stroke-width="3"/>
    <path d="M20,20 L0,60 L10,22 Z" fill="#4A4540"/>
    <path d="M40,-120 C45,-115 42,-108 38,-112 Z" fill="#C4832A" stroke="#6B6560" stroke-width="1.5"/>
    <line x1="20" y1="20" x2="0" y2="60" stroke="#4A4540" stroke-width="2.5"/>
    <path d="M10,0 C25,-45 55,-70 38,-112" fill="none" stroke="#6B6560" stroke-width="1.5" opacity="0.4"/>
  </g>
</svg>